<svg xmlns="http://www.w3.org/2000/svg" xmlns:xlink="http://www.w3.org/1999/xlink" xmlns:cc="http://creativecommons.org/ns#" xmlns:dc="http://purl.org/dc/elements/1.1/" xmlns:rdf="http://www.w3.org/1999/02/22-rdf-syntax-ns#"><symbol id="email" viewBox="0 0 512 512"><g style="enable-background:new 0 0 512 512;"><g><g><path d="M405.333,213.874V106.667c0-23.531-19.135-42.667-42.667-42.667h-320C19.135,64,0,83.135,0,106.667V320 c0,23.531,19.135,42.667,42.667,42.667h239.215C295.858,411.84,341.073,448,394.667,448c20.625,0,40.906-5.427,58.677-15.708 c5.094-2.948,6.844-9.469,3.885-14.573c-2.948-5.104-9.479-6.865-14.573-3.885c-14.521,8.396-31.115,12.833-47.99,12.833 c-52.938,0-96-43.063-96-96s43.063-96,96-96s96,43.063,96,96v10.667c0,11.76-9.573,21.333-21.333,21.333 c-11.76,0-21.333-9.573-21.333-21.333v-42.667c0-5.896-4.771-10.667-10.667-10.667c-2.869,0-5.447,1.161-7.362,3 c-9.428-8.401-21.714-13.667-35.305-13.667c-29.406,0-53.333,23.927-53.333,53.333S365.26,384,394.667,384 c15.896,0,30.03-7.131,39.81-18.202c7.727,10.977,20.44,18.202,34.857,18.202C492.865,384,512,364.865,512,341.333v-10.667 C512,269.569,465.044,219.288,405.333,213.874z M42.667,85.333h320c0.444,0,0.816,0.227,1.254,0.254L211.438,210.75 c-5.427,3.417-13.292,2.708-16.823,0.542L41.426,85.585C41.859,85.559,42.227,85.333,42.667,85.333z M384,213.874 c-59.711,5.414-106.667,55.695-106.667,116.793c0,3.6,0.221,7.148,0.54,10.667H42.667c-11.76,0-21.333-9.573-21.333-21.333 V106.667c0-3.021,0.667-5.874,1.805-8.48l158.883,130.293c6.208,4.052,13.344,6.188,20.646,6.188 c7.021,0,13.885-1.979,19.927-5.729c0.604-0.323,1.177-0.708,1.719-1.156l157.88-129.598c1.139,2.608,1.807,5.461,1.807,8.483 V213.874z M394.667,362.667c-17.646,0-32-14.354-32-32c0-17.646,14.354-32,32-32s32,14.354,32,32 C426.667,348.313,412.313,362.667,394.667,362.667z" fill="#000000" style="fill: rgb(16, 37, 100);"/></g></g></g></symbol><symbol id="features">
  <g transform="translate(0 -1028.4)">
    <path d="m22 12c0 5.523-4.477 10-10 10-5.5228 0-10-4.477-10-10 0-5.5228 4.4772-10 10-10 5.523 0 10 4.4772 10 10z" fill="currentColor" transform="translate(0 1028.4)"/>
    <path d="m6.0001 1042.4h4.9999v5h2v-5h5v-2h-5v-5h-2v5h-4.9999v2z" fill="#27ae60"/>
    <path d="m6 1041.4h5v5h2v-5h5v-2h-5v-5h-2v5h-5v2z" fill="#ecf0f1"/>
  </g>
</symbol><symbol id="ok" viewBox="0 0 64 64">
  <path d="M 32 10 C 19.85 10 10 19.85 10 32 C 10 44.15 19.85 54 32 54 C 44.15 54 54 44.15 54 32 C 54 19.85 44.15 10 32 10 z M 32 14 C 41.941 14 50 22.059 50 32 C 50 41.941 41.941 50 32 50 C 22.059 50 14 41.941 14 32 C 14 22.059 22.059 14 32 14 z M 40.962891 22.398438 C 40.320791 22.410684 39.696641 22.731797 39.322266 23.310547 L 29.613281 38.296875 L 24.503906 32.486328 C 23.774906 31.658328 22.508688 31.576641 21.679688 32.306641 C 20.850688 33.036641 20.769047 34.300859 21.498047 35.130859 L 28.353516 42.921875 C 28.735516 43.354875 29.283469 43.599609 29.855469 43.599609 C 29.903469 43.599609 29.952953 43.598703 30.001953 43.595703 C 30.626953 43.549703 31.192203 43.2125 31.533203 42.6875 L 42.679688 25.486328 C 43.279688 24.559328 43.014891 23.321703 42.087891 22.720703 C 41.739141 22.495703 41.34815 22.39109 40.962891 22.398438 z"/>
</symbol><symbol id="phone" viewBox="0 0 547.597 547.597"><g style="enable-background:new 0 0 547.597 547.597;"><g><g><path d="M409.997,0H137.599c-13.971,0-25.264,11.312-25.264,25.264v497.059c0,13.961,11.303,25.273,25.264,25.273h272.397 c13.952,0,25.265-11.312,25.265-25.273V25.264C435.27,11.303,423.949,0,409.997,0z M245.885,29.816h55.807 c2.917,0,5.269,2.353,5.269,5.269s-2.352,5.269-5.269,5.269h-55.807c-2.897,0-5.269-2.353-5.269-5.269 S242.988,29.816,245.885,29.816z M307.497,502.653H240.09c-5.527,0-10.012-4.476-10.012-10.003 c0-5.526,4.485-10.002,10.012-10.002h67.406c5.526,0,9.992,4.476,9.992,10.002C317.489,498.178,313.033,502.653,307.497,502.653z M403.685,443.69H143.911V85.642h259.774V443.69z" fill="#000000" style="fill: rgb(16, 38, 84);"/></g></g></g></symbol><symbol id="ruble" viewBox="0 0 30 42"><g fill="none">
  <path fill-rule="evenodd" clip-rule="evenodd" d="M0 17H6V23H0V17Z" fill="currentColor"/>
  <path fill-rule="evenodd" clip-rule="evenodd" d="M3.65854 28.3214V18H9.65854V28.3214H21V34.3214H9.65854V42H3.65854V34.3214H0V28.3214H3.65854Z" fill="currentColor"/>
  <path fill-rule="evenodd" clip-rule="evenodd" d="M18.5 6H10V17H18.5C21.5376 17 24 14.5376 24 11.5C24 8.46243 21.5376 6 18.5 6ZM4 0V23H18.5C24.8513 23 30 17.8513 30 11.5C30 5.14873 24.8513 0 18.5 0H4Z" fill="currentColor"/>
</g></symbol><symbol id="swiperVector" viewBox="0 0 18 34"><g fill="transparent">
  <path d="M17 1L0.999999 17L17 33" stroke="currentColor"/>
</g></symbol><symbol id="telegram" viewBox="0 0 455.731 455.731"><g style="enable-background:new 0 0 455.731 455.731;"><g><rect x="0" y="0" style="fill:#61A8DE;" width="455.731" height="455.731"/><path style="fill:#FFFFFF;" d="M358.844,100.6L54.091,219.359c-9.871,3.847-9.273,18.012,0.888,21.012l77.441,22.868l28.901,91.706 c3.019,9.579,15.158,12.483,22.185,5.308l40.039-40.882l78.56,57.665c9.614,7.057,23.306,1.814,25.747-9.859l52.031-248.76 C382.431,106.232,370.443,96.08,358.844,100.6z M320.636,155.806L179.08,280.984c-1.411,1.248-2.309,2.975-2.519,4.847 l-5.45,48.448c-0.178,1.58-2.389,1.789-2.861,0.271l-22.423-72.253c-1.027-3.308,0.312-6.892,3.255-8.717l167.163-103.676 C320.089,147.518,324.025,152.81,320.636,155.806z"/></g></g></symbol><symbol id="vk" viewBox="0 0 22 22"><g fill="currentColor">
  <path d="M21.8039 15.7032C21.7448 15.6086 21.379 14.8488 19.6189 13.2871C17.7762 11.6518 18.0238 11.9173 20.2432 9.0897C21.5949 7.36763 22.1353 6.31598 21.9662 5.86641C21.8053 5.43786 20.8111 5.55091 20.8111 5.55091L17.5053 5.56932C17.5053 5.56932 17.2606 5.53777 17.0777 5.64162C16.9003 5.74415 16.7862 5.98077 16.7862 5.98077C16.7862 5.98077 16.2623 7.31373 15.5637 8.44688C14.091 10.8381 13.501 10.9643 13.2604 10.8157C12.7007 10.47 12.841 9.42491 12.841 8.6835C12.841 6.36594 13.2082 5.39974 12.1246 5.14997C11.7643 5.06715 11.5003 5.01194 10.5803 5.00274C9.4005 4.99091 8.4008 5.00668 7.83563 5.27091C7.45885 5.44706 7.16871 5.84011 7.3461 5.86246C7.56474 5.89007 8.05977 5.98997 8.32242 6.33176C8.66207 6.77214 8.64969 7.76331 8.64969 7.76331C8.64969 7.76331 8.84496 10.491 8.19453 10.8302C7.74763 11.0629 7.13571 10.5883 5.82248 8.41796C5.15006 7.30716 4.64127 6.07805 4.64127 6.07805C4.64127 6.07805 4.54364 5.84932 4.369 5.72706C4.15724 5.57852 3.86022 5.53119 3.86022 5.53119L0.716735 5.5496C0.716735 5.5496 0.245075 5.56274 0.0718122 5.75861C-0.0821991 5.93345 0.0594363 6.29364 0.0594363 6.29364C0.0594363 6.29364 2.52087 11.7977 5.30682 14.5727C7.86313 17.1164 10.7646 16.9494 10.7646 16.9494H12.0792C12.0792 16.9494 12.4766 16.9074 12.6787 16.6984C12.8658 16.5064 12.8589 16.1463 12.8589 16.1463C12.8589 16.1463 12.8327 14.4597 13.6523 14.2112C14.4595 13.9667 15.4963 15.8413 16.595 16.563C17.4256 17.1085 18.0568 16.9889 18.0568 16.9889L20.9953 16.9494C20.9953 16.9494 22.5327 16.8587 21.8039 15.7032Z" fill="#currentColor"/>
</g></symbol><symbol id="whatsapp" viewBox="0 0 64 64">
  <g id="Icons" fill="none" fill-rule="evenodd">
    <g id="Social-Media-Collection" fill="#67d449" transform="translate(-122 -1045)">
      <g id="Whatsapp" transform="translate(122 1045)">
        <path id="Fill-133" d="m39.8258 37.522c-.33.926-1.914 1.77-2.676 1.884-.682.102-1.546.144-2.496-.156-.576-.184-1.314-.428-2.258-.836-3.976-1.716-6.574-5.718-6.772-5.982s-1.618-2.148-1.618-4.098 1.024-2.91 1.388-3.306c.362-.396.792-.496 1.056-.496s.528.002.76.014c.244.012.57-.092.892.68.33.794 1.122 2.744 1.222 2.942.098.198.164.43.032.694s-.198.43-.396.662c-.198.23-.416.516-.594.694-.198.196-.406.412-.174.808s1.026 1.694 2.204 2.744c1.514 1.35 2.792 1.768 3.188 1.968.396.198.628.164.858-.1.232-.264.992-1.156 1.256-1.554.264-.396.528-.33.892-.198.362.132 2.312 1.09 2.708 1.29.396.198.66.296.76.462.098.166.098.958-.232 1.884m-7.754-18.844c-7.272 0-13.188 5.912-13.19 13.178 0 2.49.696 4.916 2.016 7.014l.314.498-1.332 4.864 4.99-1.308.48.284c2.024 1.202 4.344 1.838 6.71 1.838h.006c7.266 0 13.18-5.912 13.184-13.18 0-3.522-1.368-6.832-3.858-9.324-2.49-2.49-5.8-3.864-9.32-3.864"/>
        <g id="Fill-296">
          <path id="Fill-134" d="m32.066 47.724h-.006c-2.656 0-5.264-.666-7.58-1.93l-8.41 2.206 2.252-8.218c-1.388-2.404-2.12-5.132-2.118-7.928.004-8.742 7.118-15.854 15.862-15.854 4.242 0 8.226 1.652 11.22 4.65 2.994 2.996 4.644 6.98 4.642 11.218-.004 8.742-7.12 15.856-15.862 15.856zm-32.066 16.276h64v-64h-64z"/>
        </g>
      </g>
    </g>
  </g>
</symbol></svg>